<?xml version="1.0" encoding="UTF-8" standalone="no"?>
<!-- Created with Inkscape (http://www.inkscape.org/) -->

<svg
   width="500"
   height="500"
   viewBox="0 0 132.29167 132.29166"
   version="1.1"
   id="svg1"
   inkscape:version="1.4.2 (ebf0e940d0, 2025-05-08)"
   sodipodi:docname="icon.svg"
   xmlns:inkscape="http://www.inkscape.org/namespaces/inkscape"
   xmlns:sodipodi="http://sodipodi.sourceforge.net/DTD/sodipodi-0.dtd"
   xmlns="http://www.w3.org/2000/svg"
   xmlns:svg="http://www.w3.org/2000/svg">
  <sodipodi:namedview
     id="namedview1"
     pagecolor="#ffffff"
     bordercolor="#111111"
     borderopacity="1"
     inkscape:showpageshadow="0"
     inkscape:pageopacity="0"
     inkscape:pagecheckerboard="1"
     inkscape:deskcolor="#d1d1d1"
     inkscape:document-units="mm"
     inkscape:zoom="0.7367354"
     inkscape:cx="127.5899"
     inkscape:cy="189.34885"
     inkscape:window-width="1969"
     inkscape:window-height="1036"
     inkscape:window-x="0"
     inkscape:window-y="0"
     inkscape:window-maximized="1"
     inkscape:current-layer="layer1" />
  <defs
     id="defs1" />
  <g
     inkscape:label="Layer 1"
     inkscape:groupmode="layer"
     id="layer1"
     transform="translate(-49.026787,-45.613732)">
    <g
       id="g11">
      <path
         style="font-weight:bold;font-size:97.0062px;font-family:'Nimbus Sans';-inkscape-font-specification:'Nimbus Sans Bold';stroke:#ffffff;stroke-width:2.291"
         d="M 135.0935,72.911278 H 121.51263 V 143.6288 h 13.58087 z"
         id="path2" />
      <path
         style="font-weight:bold;font-size:97.0062px;font-family:'Nimbus Sans';-inkscape-font-specification:'Nimbus Sans Bold';stroke:#ffffff;stroke-width:2.291"
         d="m 52.929232,143.6288 h 31.818035 c 8.148521,0 13.580868,-1.5521 17.849143,-5.14133 4.26827,-3.58923 6.98444,-9.50661 6.98444,-15.22997 0,-6.98445 -3.68623,-12.5138 -11.737746,-17.1701 6.984446,-4.46229 9.700616,-8.536547 9.700616,-14.550931 0,-4.947317 -2.42515,-9.991639 -6.4024,-13.483863 -4.171272,-3.589229 -9.118588,-5.141328 -16.685072,-5.141328 H 52.929232 Z M 67.480163,85.037053 h 15.812011 c 6.790434,0 10.282657,2.716174 10.282657,7.954509 0,5.335341 -3.492223,8.051518 -10.282657,8.051518 H 67.480163 Z m 0,28.131797 h 17.36411 c 7.081453,0 10.767689,3.1042 10.767689,9.21559 0,6.01439 -3.686236,9.11858 -10.767689,9.11858 h -17.36411 z"
         id="text1" />
      <path
         id="path4"
         style="fill:#000000;stroke:#ffffff;stroke-width:2.29102708;stroke-dasharray:none;stroke-opacity:1"
         d="m 165.17988,122.78897 -40.22118,20.71824 6.11048,9.50304 z"
         sodipodi:nodetypes="cccc" />
      <circle
         style="fill:#000000;stroke:#ffffff;stroke-width:2.291;stroke-dasharray:none"
         id="path1"
         cx="128.30307"
         cy="147.44481"
         r="9.649827" />
    </g>
    <g
       id="g12">
      <path
         id="path10"
         style="fill:#000000;stroke:#ffffff;stroke-width:2.29103;stroke-dasharray:none;stroke-opacity:1"
         d="m 180.44198,102.40647 -10.19228,7.12407 2.61868,3.7465 7.57376,-5.2938 z"
         sodipodi:nodetypes="ccccc" />
      <path
         style="fill:#000000;stroke:#ffffff;stroke-width:2.29103;stroke-dasharray:none;stroke-opacity:1"
         d="m 170.42137,81.259647 -11.9794,15.774428 3.64025,2.764477 12.13298,-15.976666 z"
         id="path7" />
      <path
         style="fill:#000000;stroke:#ffffff;stroke-width:2.29103;stroke-dasharray:none;stroke-opacity:1"
         d="m 151.13517,73.045068 -8.84976,17.720618 4.08937,2.042253 8.96322,-17.947808 z"
         id="path8" />
    </g>
  </g>
</svg>
